<?xml version="1.0" encoding="UTF-8"?>
<svg id="Ebene_1" xmlns="http://www.w3.org/2000/svg" width="24" height="24" version="1.1" viewBox="0 0 24 24">
  <!-- Generator: Adobe Illustrator 29.3.1, SVG Export Plug-In . SVG Version: 2.1.0 Build 151)  -->
  <path d="M19.5,16.2c0,0,0-.2,0-.3s0-.2,0-.3v-4.7c0-.8-.6-1.4-1.4-1.4s-1.4.6-1.4,1.4v-2c0-.8-.6-1.4-1.4-1.4s-1.4.6-1.4,1.4v-.6c0-.8-.6-1.4-1.4-1.4s-1.4.6-1.4,1.4v.4c0-.8-.6-1.4-1.4-1.4s-1.4.6-1.4,1.4v4s-.4-.6-.4-.6c0,0,0,0,0,0-1.1-1.6-3.4,0-2.5,1.7.8,1.4.8,1.6,1,2.4,1.1,3,3.3,6.2,6.9,6.2s6.2-2.6,6.4-5.9c0,0,0,0,0,0v-.2Z" fill="none" stroke="red" stroke-linecap="round" stroke-linejoin="round" stroke-width="1.5"/>
  <line x1="10.9" y1="8.8" x2="10.9" y2="10.9" fill="none" stroke="red" stroke-linecap="round" stroke-linejoin="round" stroke-width="1.5"/>
  <line x1="13.7" y1="8.8" x2="13.7" y2="10.4" fill="none" stroke="red" stroke-linecap="round" stroke-linejoin="round" stroke-width="1.5"/>
  <line x1="16.6" y1="9.6" x2="16.6" y2="11.7" fill="none" stroke="red" stroke-linecap="round" stroke-linejoin="round" stroke-width="1.5"/>
</svg>