<svg height="24" viewBox="0 0 24 24" width="24" xmlns="http://www.w3.org/2000/svg"><g fill="none" stroke="#000" stroke-linecap="round" stroke-linejoin="round" stroke-width="1.5"><path d="m19.4 16.4v-.2s0-.2 0-.2v-9c0-.8-.6-1.4-1.4-1.4s-1.4.6-1.4 1.4v-2c0-.8-.6-1.4-1.4-1.4s-1.4.6-1.4 1.4v-2.1c0-.8-.6-1.4-1.4-1.4s-1.4.6-1.4 1.4v1.9c0-.8-.6-1.4-1.4-1.4s-1.4.6-1.4 1.4v8.2s-1.3-1.9-1.3-1.9c-.9-1.3-2.6-1.7-3.9-.8 0 0 2.8 4.6 3.3 6.2 1 3 3.2 6.1 6.8 6.1s6.1-2.6 6.3-5.8v-.2z"/><path d="m11 4.8v6.3"/><path d="m13.8 4.8v5.9"/><path d="m16.6 5.6v6.3"/></g></svg>