<svg height="24" viewBox="0 0 24 24" width="24" xmlns="http://www.w3.org/2000/svg"><g fill="none" stroke="#000" stroke-linecap="round" stroke-linejoin="round" stroke-width="1.5"><path d="m19.5 16.2s0-.2 0-.3 0-.2 0-.3v-4.7c0-.8-.6-1.4-1.4-1.4s-1.4.6-1.4 1.4v-2c0-.8-.6-1.4-1.4-1.4s-1.4.6-1.4 1.4v-.6c0-.8-.6-1.4-1.4-1.4s-1.4.6-1.4 1.4v.4c0-.8-.6-1.4-1.4-1.4s-1.4.6-1.4 1.4v4s-.4-.6-.4-.6c-1.1-1.6-3.4 0-2.5 1.7.8 1.4.8 1.6 1 2.4 1.1 3 3.3 6.2 6.9 6.2s6.2-2.6 6.4-5.9v-.2z"/><path d="m10.9 8.8v2.1"/><path d="m13.7 8.8v1.6"/><path d="m16.6 9.6v2.1"/></g></svg>