<svg height="24" viewBox="0 0 24 24" width="24" xmlns="http://www.w3.org/2000/svg"><g fill="none" stroke="#000" stroke-linecap="round" stroke-linejoin="round" stroke-width="1.5"><path d="m21.5 13.3v-2.7l-2.6-.5c-.2-.6-.4-1.2-.7-1.7l1.5-2.2-1.9-1.9-2.2 1.5c-.5-.3-1.1-.5-1.7-.7l-.5-2.6h-2.7l-.5 2.6c-.6.2-1.2.4-1.7.7l-2.2-1.5-1.9 1.9 1.5 2.2c-.3.5-.5 1.1-.7 1.7l-2.6.5v2.7l2.6.5c.2.6.4 1.2.7 1.7l-1.5 2.2 1.9 1.9 2.2-1.5c.5.3 1.1.5 1.7.7l.5 2.6h2.7l.5-2.6c.6-.2 1.2-.4 1.7-.7l2.2 1.5 1.9-1.9-1.5-2.2c.3-.5.5-1.1.7-1.7z"/><rect height="7.7" rx="3.8" width="7.7" x="8.2" y="8.2"/></g></svg>