<?xml version="1.0" encoding="UTF-8"?>
<svg id="Ebene_1" xmlns="http://www.w3.org/2000/svg" width="24" height="24" version="1.1" viewBox="0 0 24 24">
  <!-- Generator: Adobe Illustrator 29.3.1, SVG Export Plug-In . SVG Version: 2.1.0 Build 151)  -->
  <path d="M21.5,13.3v-2.7l-2.6-.5c-.2-.6-.4-1.2-.7-1.7l1.5-2.2-1.9-1.9-2.2,1.5c-.5-.3-1.1-.5-1.7-.7l-.5-2.6h-2.7l-.5,2.6c-.6.2-1.2.4-1.7.7l-2.2-1.5-1.9,1.9,1.5,2.2c-.3.5-.5,1.1-.7,1.7l-2.6.5v2.7l2.6.5c.2.6.4,1.2.7,1.7l-1.5,2.2,1.9,1.9,2.2-1.5c.5.3,1.1.5,1.7.7l.5,2.6h2.7l.5-2.6c.6-.2,1.2-.4,1.7-.7l2.2,1.5,1.9-1.9-1.5-2.2c.3-.5.5-1.1.7-1.7l2.6-.5Z" fill="none" stroke="red" stroke-linecap="round" stroke-linejoin="round" stroke-width="1.5"/>
  <rect x="8.2" y="8.2" width="7.7" height="7.7" rx="3.8" ry="3.8" fill="none" stroke="red" stroke-linecap="round" stroke-linejoin="round" stroke-width="1.5"/>
</svg>